<svg id="Layer_1" data-name="Layer 1" xmlns="http://www.w3.org/2000/svg" viewBox="0 0 100 100"><defs><style>.cls-1{fill:#fff;}</style></defs><g id="iconfinder_77-behance_104426" data-name="iconfinder 77-behance 104426"><path id="Path_5" data-name="Path 5" class="cls-1" d="M69.27,45.09c-6.32,0-7.19,6.3-7.19,6.3H75.5S75.59,45.09,69.27,45.09Z"/><path id="Path_6" data-name="Path 6" class="cls-1" d="M38.81,51.39H26.9V62.32H38.2c1.69,0,4.91-.53,4.91-5.31C43.11,51.34,38.81,51.39,38.81,51.39Z"/><path id="Path_7" data-name="Path 7" class="cls-1" d="M50,1A49,49,0,1,0,99,50h0A49,49,0,0,0,50,1ZM60.31,31.11H77.18v5H60.31ZM51.79,57.52c0,12.48-13,12.07-13,12.07H17.53V28.7H38.81c6.46,0,11.56,3.56,11.56,10.89s-6.24,7.78-6.24,7.78C52.36,47.37,51.79,57.52,51.79,57.52Zm31.55-.67H62.16A6.65,6.65,0,0,0,68.3,64a6.14,6.14,0,0,0,1,0c6.8,0,6.56-4.4,6.56-4.4h7.2c0,11.67-14,10.87-14,10.87-16.78,0-15.7-15.63-15.7-15.63s0-15.71,15.7-15.71c16.55,0,14.24,17.75,14.24,17.75Z"/><path id="Path_8" data-name="Path 8" class="cls-1" d="M41.7,40.22C41.7,36,38.81,36,38.81,36H26.9v9.12H38.07C40,45.09,41.7,44.47,41.7,40.22Z"/></g></svg>