<svg id="Layer_1" data-name="Layer 1" xmlns="http://www.w3.org/2000/svg" viewBox="0 0 100 100"><defs><style>.cls-1{fill:#fff;}</style></defs><path id="Dribbble" class="cls-1" d="M50,1A49,49,0,1,0,99,50,49,49,0,0,0,50,1ZM81.93,24.11A40.86,40.86,0,0,1,91.1,48.75a69.13,69.13,0,0,0-27.56-.27Q61.32,43.31,59,38.64A81.06,81.06,0,0,0,81.93,24.11ZM76.41,18.5A73.1,73.1,0,0,1,55.35,31.64,187.66,187.66,0,0,0,41.42,9.77a41.06,41.06,0,0,1,35,8.73ZM33.48,12.34a180.69,180.69,0,0,1,14.33,22.1,131.42,131.42,0,0,1-37.81,6A41.3,41.3,0,0,1,33.48,12.34Zm-24.57,36h.23a143,143,0,0,0,25-2.31,120.72,120.72,0,0,0,17.47-4.5c1.42,2.84,2.84,5.84,4.21,9A74.09,74.09,0,0,0,36.52,60a86.47,86.47,0,0,0-17.9,16.53A41,41,0,0,1,8.87,50C8.87,49.44,8.89,48.87,8.91,48.32ZM24.29,82.08A79.43,79.43,0,0,1,41.2,66.35a66.41,66.41,0,0,1,17.54-8.62A153.23,153.23,0,0,1,67,87.44,41,41,0,0,1,24.3,82.08ZM74.24,83.2a163,163,0,0,0-7.73-27.33,61.93,61.93,0,0,1,24.07.81A41.13,41.13,0,0,1,74.24,83.2Z"/></svg>