<svg id="Layer_1" data-name="Layer 1" xmlns="http://www.w3.org/2000/svg" viewBox="0 0 100 100"><defs><style>.cls-1{fill:#fff;}</style></defs><path class="cls-1" d="M72.06,33.31A8.7,8.7,0,0,0,70,30.06a8.89,8.89,0,0,0-3.26-2.12,15.65,15.65,0,0,0-5.26-1c-3-.13-3.87-.16-11.43-.16s-8.46,0-11.43.16a15.65,15.65,0,0,0-5.26,1,8.89,8.89,0,0,0-3.26,2.12,8.7,8.7,0,0,0-2.11,3.25,15.77,15.77,0,0,0-1,5.26c-.13,3-.16,3.88-.16,11.44s0,8.45.16,11.43a15.71,15.71,0,0,0,1,5.26A8.7,8.7,0,0,0,30.05,70a8.89,8.89,0,0,0,3.26,2.12,15.65,15.65,0,0,0,5.26,1c3,.12,3.87.16,11.43.16s8.46,0,11.43-.16a15.65,15.65,0,0,0,5.26-1A8.89,8.89,0,0,0,70,70a8.7,8.7,0,0,0,2.11-3.25,15.71,15.71,0,0,0,1-5.26c.13-3,.16-3.88.16-11.43s0-8.46-.16-11.44A15.77,15.77,0,0,0,72.06,33.31ZM50,64.53A14.53,14.53,0,1,1,64.53,50,14.52,14.52,0,0,1,50,64.53ZM65.12,38.3a3.4,3.4,0,1,1,3.39-3.4A3.4,3.4,0,0,1,65.12,38.3Z"/><circle class="cls-1" cx="50" cy="50.01" r="9.43"/><path class="cls-1" d="M50,1A49,49,0,1,0,99,50,49,49,0,0,0,50,1ZM78.13,61.66a20.57,20.57,0,0,1-1.32,6.87,14.47,14.47,0,0,1-8.28,8.28,21,21,0,0,1-6.87,1.31c-3,.14-4,.17-11.66.17s-8.65,0-11.66-.17a20.75,20.75,0,0,1-6.87-1.31,14.47,14.47,0,0,1-8.28-8.28,21.09,21.09,0,0,1-1.32-6.87c-.13-3-.17-4-.17-11.67s0-8.65.17-11.66a20.57,20.57,0,0,1,1.32-6.87,14.49,14.49,0,0,1,8.28-8.27,20.51,20.51,0,0,1,6.88-1.31c3-.14,4-.17,11.66-.17s8.65,0,11.67.17a20.74,20.74,0,0,1,6.86,1.31,14.44,14.44,0,0,1,8.27,8.27,21.09,21.09,0,0,1,1.32,6.87c.13,3,.17,4,.17,11.66S78.26,58.64,78.13,61.66Z"/></svg>