<svg id="Layer_1" data-name="Layer 1" xmlns="http://www.w3.org/2000/svg" viewBox="0 0 100 100"><defs><style>.cls-1{fill:#fff;}</style></defs><path class="cls-1" d="M50,1A49,49,0,1,0,99,50,49,49,0,0,0,50,1ZM97,50c0,1.61-.08,3.22-.24,4.82l-8.33-1c.12-1.24.19-2.52.19-3.79a34.65,34.65,0,0,0-.18-3.59l8.32-1A27.92,27.92,0,0,1,97,50ZM3,50a46.87,46.87,0,0,1,.24-4.74l8.32,1c-.12,1.22-.19,2.47-.19,3.72s.07,2.5.19,3.72l-8.32,1A44.31,44.31,0,0,1,3,50ZM86.55,37.33l7.84-2.94a46.25,46.25,0,0,1,2.22,9.13l-8.32,1A38.45,38.45,0,0,0,86.55,37.33ZM86.78,50a36.5,36.5,0,0,1-.71,7.15l-8.24-1.9a28,28,0,0,0,0-10.72l8.25-1.86A36.79,36.79,0,0,1,86.78,50ZM50,76.4A26.4,26.4,0,1,1,76.4,50,26.4,26.4,0,0,1,50,76.4Zm.89,10.35V78.29a28.14,28.14,0,0,0,10.53-2.4l3.65,7.63a36.53,36.53,0,0,1-14.18,3.24ZM34.8,83.48l3.68-7.62A28,28,0,0,0,49,78.3v8.45A36.57,36.57,0,0,1,34.8,83.48ZM13.22,50A36.58,36.58,0,0,1,14,42.55l8.24,1.89a28,28,0,0,0-.07,10.72L13.9,57A37,37,0,0,1,13.22,50ZM49,13.25v8.46a28,28,0,0,0-10.38,2.35L35,16.44A36.55,36.55,0,0,1,49,13.25Zm16.1,3.23-3.69,7.61A28.15,28.15,0,0,0,51,21.7V13.25A36.54,36.54,0,0,1,65.12,16.48ZM85.89,35.54A39.16,39.16,0,0,0,82.48,29l6.86-4.74a47.2,47.2,0,0,1,4.35,8.34Zm-.27,5.27-8.26,1.86a28.18,28.18,0,0,0-4.66-9.6l6.62-5.25a36.55,36.55,0,0,1,6.29,13ZM71.48,31.57a28.42,28.42,0,0,0-8.33-6.65l3.7-7.6a37.15,37.15,0,0,1,11.26,9ZM69,16.32l3.92-7.41a47,47,0,0,1,7.71,5.4L75.08,20.6A38.77,38.77,0,0,0,69,16.32Zm-1.69-.9a38.72,38.72,0,0,0-6.86-2.68l2-8.13A46.56,46.56,0,0,1,71.32,8Zm-8.77-3.15a38.52,38.52,0,0,0-7.47-1V3a46.67,46.67,0,0,1,9.49,1.18Zm-9.39-1a38.82,38.82,0,0,0-7.37.86L39.84,4A46.58,46.58,0,0,1,49.18,3ZM39.93,12.6a38.41,38.41,0,0,0-7,2.62L29.09,7.86a46.26,46.26,0,0,1,8.82-3.34Zm-8.66,3.51a38.92,38.92,0,0,0-6.12,4.22l-5.53-6.24A47.84,47.84,0,0,1,27.4,8.72Zm2,1.12,3.67,7.61a28.4,28.4,0,0,0-8.35,6.62l-6.61-5.27a37.06,37.06,0,0,1,11.33-8.92ZM20.77,27.71,27.37,33a28.17,28.17,0,0,0-4.7,9.58l-8.25-1.89A36.51,36.51,0,0,1,20.77,27.71ZM14.19,35.3,6.35,32.36A47.18,47.18,0,0,1,10.8,24l6.86,4.76A39.75,39.75,0,0,0,14.19,35.3Zm-.69,1.79a38.4,38.4,0,0,0-1.79,7.23l-8.31-1a47.58,47.58,0,0,1,2.27-9.2ZM11.71,55.63a38.3,38.3,0,0,0,1.79,7.22L5.66,65.79A47,47,0,0,1,3.4,56.61Zm2.47,9a39,39,0,0,0,3.48,6.58L10.8,76a47,47,0,0,1-4.45-8.34Zm.13-5.74L22.56,57a28.14,28.14,0,0,0,4.62,9.71L20.6,72a36.6,36.6,0,0,1-6.28-13.1Zm14,9.35A28.6,28.6,0,0,0,36.73,75l-3.66,7.6a36.88,36.88,0,0,1-11.32-9.11Zm2.88,15.58-3.92,7.42a47.53,47.53,0,0,1-7.69-5.37l5.56-6.26a39.11,39.11,0,0,0,6.07,4.21Zm1.71.89a37.94,37.94,0,0,0,6.94,2.62l-2,8.13A46.26,46.26,0,0,1,29,92.14Zm8.82,3.08a38.73,38.73,0,0,0,7.36.87V97a46.76,46.76,0,0,1-9.36-1.12Zm9.28.86a38.76,38.76,0,0,0,7.35-.9l2,8.13A46.25,46.25,0,0,1,51,97Zm9.21-1.36a38.76,38.76,0,0,0,6.91-2.64l3.92,7.42a46.33,46.33,0,0,1-8.82,3.36Zm8.61-3.54a38.84,38.84,0,0,0,6.07-4.2l5.54,6.28a47.43,47.43,0,0,1-7.72,5.31Zm-2-1.09-3.66-7.62a28.59,28.59,0,0,0,8.41-6.73l6.6,5.28a37.1,37.1,0,0,1-11.34,9.08ZM79.4,72.11l-6.6-5.28a28.14,28.14,0,0,0,4.64-9.7L85.68,59A36.72,36.72,0,0,1,79.4,72.11Zm6.41-7.41,7.84,2.94A46.83,46.83,0,0,1,89.2,76l-6.86-4.77A38.89,38.89,0,0,0,85.81,64.7Zm.69-1.79a38.55,38.55,0,0,0,1.78-7.17l8.31,1a47.06,47.06,0,0,1-2.26,9.13Zm1.79-40.18-6.86,4.74a39.81,39.81,0,0,0-4.9-5.56l5.56-6.25a47.42,47.42,0,0,1,6.2,7ZM18.16,15.36l5.56,6.27a38.1,38.1,0,0,0-4.9,5.56L12,22.42A47.3,47.3,0,0,1,18.16,15.36Zm-6.3,62.2,6.86-4.76a38.55,38.55,0,0,0,4.9,5.55l-5.57,6.26A47.16,47.16,0,0,1,11.86,77.56Zm70.05,7-5.55-6.28a38.32,38.32,0,0,0,4.9-5.52l6.86,4.77a47.64,47.64,0,0,1-6.2,7Z"/></svg>