<svg id="Layer_1" data-name="Layer 1" xmlns="http://www.w3.org/2000/svg" viewBox="0 0 100 100"><defs><style>.cls-1{fill:#fff;}</style></defs><polygon class="cls-1" points="44.02 58.99 59.62 50.02 44.02 41.01 44.02 58.99"/><path class="cls-1" d="M50,1A49,49,0,1,0,99,50,49,49,0,0,0,50,1ZM80,50.06s0,9.74-1.26,14.41a7.45,7.45,0,0,1-5.26,5.3C68.77,71,50,71,50,71s-18.71,0-23.46-1.26a7.65,7.65,0,0,1-5.3-5.29C20,59.8,20,50,20,50s0-9.75,1.22-14.46a7.76,7.76,0,0,1,5.3-5.33C31.23,29,50,29,50,29s18.79,0,23.5,1.29a7.44,7.44,0,0,1,5.26,5.26C80,40.27,80,50.06,80,50.06Z"/></svg>